<svg width="1600" height="980" viewBox="0 0 1600 980" fill="none" xmlns="http://www.w3.org/2000/svg">
  <defs>
    <linearGradient id="bg" x1="0" y1="0" x2="1600" y2="980" gradientUnits="userSpaceOnUse">
      <stop stop-color="#101827"/>
      <stop offset="1" stop-color="#0B1120"/>
    </linearGradient>
    <linearGradient id="panel" x1="0" y1="0" x2="1" y2="1">
      <stop stop-color="#111827"/>
      <stop offset="1" stop-color="#162033"/>
    </linearGradient>
    <linearGradient id="accent" x1="0" y1="0" x2="1" y2="0">
      <stop stop-color="#7DD3FC"/>
      <stop offset="0.5" stop-color="#A78BFA"/>
      <stop offset="1" stop-color="#F9A8D4"/>
    </linearGradient>
  </defs>
  <rect width="1600" height="980" fill="url(#bg)"/>
  <rect x="50" y="44" width="1500" height="892" rx="22" fill="url(#panel)" stroke="#24314A"/>
  <rect x="78" y="72" width="1444" height="64" rx="16" fill="#0F172A" stroke="#24314A"/>
  <circle cx="118" cy="104" r="8" fill="#F87171"/>
  <circle cx="146" cy="104" r="8" fill="#FBBF24"/>
  <circle cx="174" cy="104" r="8" fill="#34D399"/>
  <text x="360" y="112" fill="#E2E8F0" font-family="Arial, Helvetica, sans-serif" font-size="28" font-weight="700">Finora</text>
  <text x="1120" y="112" fill="#94A3B8" font-family="Arial, Helvetica, sans-serif" font-size="22">Governance • Leads • Campaigns</text>

  <rect x="98" y="180" width="520" height="260" rx="20" fill="#0F172A" stroke="#24314A"/>
  <text x="128" y="220" fill="#7DD3FC" font-family="Arial, Helvetica, sans-serif" font-size="18" letter-spacing="4">GOVERNANCE-FIRST</text>
  <text x="128" y="285" fill="#F8FAFC" font-family="Arial, Helvetica, sans-serif" font-size="52" font-weight="700">Banking</text>
  <text x="128" y="342" fill="#F8FAFC" font-family="Arial, Helvetica, sans-serif" font-size="52" font-weight="700">journeys,</text>
  <text x="128" y="399" fill="#F8FAFC" font-family="Arial, Helvetica, sans-serif" font-size="52" font-weight="700"><tspan fill="#F9A8D4">made</tspan> accountable.</text>
  <text x="128" y="448" fill="#94A3B8" font-family="Arial, Helvetica, sans-serif" font-size="22">Acquisition, personalization, and secure onboarding</text>
  <text x="128" y="483" fill="#94A3B8" font-family="Arial, Helvetica, sans-serif" font-size="22">with every decision visible and reviewable.</text>

  <rect x="670" y="180" width="820" height="260" rx="22" fill="#0F172A" stroke="#24314A"/>
  <text x="710" y="220" fill="#A5B4FC" font-family="Arial, Helvetica, sans-serif" font-size="20">Lead intelligence</text>
  <rect x="710" y="250" width="180" height="110" rx="18" fill="#111827" stroke="#334155"/>
  <text x="734" y="292" fill="#E2E8F0" font-family="Arial, Helvetica, sans-serif" font-size="18">Score</text>
  <text x="734" y="333" fill="#F8FAFC" font-family="Arial, Helvetica, sans-serif" font-size="42" font-weight="700">96.4%</text>
  <rect x="918" y="250" width="200" height="110" rx="18" fill="#111827" stroke="#334155"/>
  <text x="942" y="292" fill="#E2E8F0" font-family="Arial, Helvetica, sans-serif" font-size="18">Offer fit</text>
  <text x="942" y="333" fill="#F8FAFC" font-family="Arial, Helvetica, sans-serif" font-size="40" font-weight="700">Premier</text>
  <rect x="1158" y="250" width="280" height="110" rx="18" fill="#111827" stroke="#334155"/>
  <text x="1182" y="292" fill="#E2E8F0" font-family="Arial, Helvetica, sans-serif" font-size="18">KYC status</text>
  <text x="1182" y="333" fill="#F8FAFC" font-family="Arial, Helvetica, sans-serif" font-size="40" font-weight="700">Approved</text>

  <path d="M707 454C802 377 861 401 930 442C1004 485 1069 506 1126 467C1180 430 1247 383 1359 420" stroke="url(#accent)" stroke-width="8" stroke-linecap="round"/>
  <circle cx="930" cy="442" r="12" fill="#A78BFA"/>
  <circle cx="1126" cy="467" r="12" fill="#7DD3FC"/>
  <circle cx="1359" cy="420" r="12" fill="#F9A8D4"/>

  <rect x="98" y="494" width="378" height="360" rx="20" fill="#0F172A" stroke="#24314A"/>
  <text x="129" y="532" fill="#E2E8F0" font-family="Arial, Helvetica, sans-serif" font-size="22" font-weight="700">Decision traceability</text>
  <path d="M160 610H360" stroke="#334155" stroke-width="2"/>
  <path d="M160 715H360" stroke="#334155" stroke-width="2"/>
  <path d="M160 820H360" stroke="#334155" stroke-width="2"/>
  <circle cx="176" cy="610" r="8" fill="#34D399"/>
  <circle cx="176" cy="715" r="8" fill="#FBBF24"/>
  <circle cx="176" cy="820" r="8" fill="#7DD3FC"/>
  <text x="204" y="618" fill="#E2E8F0" font-family="Arial, Helvetica, sans-serif" font-size="22">Lead scored</text>
  <text x="204" y="723" fill="#E2E8F0" font-family="Arial, Helvetica, sans-serif" font-size="22">Campaign approved</text>
  <text x="204" y="828" fill="#E2E8F0" font-family="Arial, Helvetica, sans-serif" font-size="22">KYC verified</text>

  <rect x="516" y="494" width="470" height="360" rx="20" fill="#0F172A" stroke="#24314A"/>
  <text x="548" y="535" fill="#E2E8F0" font-family="Arial, Helvetica, sans-serif" font-size="22" font-weight="700">Audience segmentation</text>
  <rect x="548" y="566" width="390" height="24" rx="12" fill="#111827"/>
  <rect x="548" y="566" width="290" height="24" rx="12" fill="#7DD3FC"/>
  <rect x="548" y="624" width="390" height="24" rx="12" fill="#111827"/>
  <rect x="548" y="624" width="225" height="24" rx="12" fill="#A78BFA"/>
  <rect x="548" y="682" width="390" height="24" rx="12" fill="#111827"/>
  <rect x="548" y="682" width="175" height="24" rx="12" fill="#F9A8D4"/>
  <text x="548" y="758" fill="#94A3B8" font-family="Arial, Helvetica, sans-serif" font-size="19">Prospective segments: Urban Growth • Premium Emerging • SME Catalyst</text>

  <rect x="1032" y="494" width="438" height="360" rx="20" fill="#0F172A" stroke="#24314A"/>
  <text x="1064" y="536" fill="#E2E8F0" font-family="Arial, Helvetica, sans-serif" font-size="22" font-weight="700">Governance signals</text>
  <rect x="1064" y="570" width="350" height="68" rx="16" fill="#111827" stroke="#334155"/>
  <text x="1090" y="602" fill="#E2E8F0" font-family="Arial, Helvetica, sans-serif" font-size="18">Risk posture</text>
  <text x="1318" y="602" fill="#34D399" font-family="Arial, Helvetica, sans-serif" font-size="24" font-weight="700">Low</text>
  <rect x="1064" y="664" width="350" height="68" rx="16" fill="#111827" stroke="#334155"/>
  <text x="1090" y="696" fill="#E2E8F0" font-family="Arial, Helvetica, sans-serif" font-size="18">Human review</text>
  <text x="1318" y="696" fill="#FBBF24" font-family="Arial, Helvetica, sans-serif" font-size="24" font-weight="700">Required</text>
  <rect x="1064" y="758" width="350" height="54" rx="16" fill="url(#accent)"/>
  <text x="1170" y="792" fill="#0F172A" font-family="Arial, Helvetica, sans-serif" font-size="22" font-weight="700">Review queue</text>
</svg>
